mtllib cube.mtl
o Mesh
v -1 -1 -1
v 1 -1 -1
v 1 1 -1
v -1 1 -1
v -1 -1 1
v 1 -1 1
v 1 1 1
v -1 1 1
vn 0 -1 0.5
vn 0 1 0.5
vn -1 0 0.5
vn 1 0 0
vn 0 0 1
vn 0 0 -1

vt 0 0
vt 0.25 0
vt 0 0.25
vt 0.25 0.25

vt 0.25 0
vt 0.5 0
vt 0.25 0.25
vt 0.5 0.25

vt 0.5 0
vt 0.75 0
vt 0.5 0.25
vt 0.75 0.25

vt 0 0.25
vt 0.25 0.25
vt 0 0.5
vt 0.25 0.5

vt 0.25 0.25
vt 0.5 0.25
vt 0.25 0.5
vt 0.5 0.5

vt 0.5 0.25
vt 0.75 0.25
vt 0.5 0.5
vt 0.75 0.5

usemtl Texture
f 1/1/1 2/2/1 6/4/1
f 1/1/1 6/4/1 5/3/1

f 3/5/2 4/6/2 8/8/2
f 3/5/2 8/8/2 7/7/2

f 4/9/3 1/10/3 5/12/3
f 4/9/3 5/12/3 8/11/3

f 2/13/4 3/14/4 7/16/4
f 2/13/4 7/16/4 6/15/4

f 5/17/5 6/18/5 7/20/5
f 5/17/5 7/20/5 8/19/5

f 4/21/6 3/22/6 2/24/6
f 4/21/6 2/24/6 1/23/6